<svg xmlns="http://www.w3.org/2000/svg" width="720" height="400" viewBox="0 0 720 400">
<rect width="100%" height="100%" fill="#fafafa"/>
<text x="360.0" y="28" text-anchor="middle" font-family="system-ui,sans-serif" font-size="14" font-weight="600">Screening tier ladder (v2 vs v3 agent)</text>
<text x="25" y="195.0" transform="rotate(-90 25,195.0)" text-anchor="middle" font-family="system-ui,sans-serif" font-size="11">works</text>
<line x1="70" y1="340" x2="700" y2="340" stroke="#333"/>
<line x1="70" y1="50" x2="70" y2="340" stroke="#333"/>
<text x="175.0" y="358" text-anchor="middle" font-family="system-ui,sans-serif" font-size="11">inclusive</text>
<text x="385.0" y="358" text-anchor="middle" font-family="system-ui,sans-serif" font-size="11">core</text>
<text x="595.0" y="358" text-anchor="middle" font-family="system-ui,sans-serif" font-size="11">ultra_core</text>
<rect x="106.8" y="87.8" width="61.4" height="252.2" fill="#8da0cb"/>
<rect x="316.8" y="198.2" width="61.4" height="141.8" fill="#8da0cb"/>
<rect x="526.8" y="331.4" width="61.4" height="8.6" fill="#8da0cb"/>
<rect x="175.0" y="95.1" width="61.4" height="244.9" fill="#4c72b0"/>
<rect x="385.0" y="246.9" width="61.4" height="93.1" fill="#4c72b0"/>
<rect x="595.0" y="334.1" width="61.4" height="5.9" fill="#4c72b0"/>
<rect x="70" y="372" width="10" height="10" fill="#8da0cb"/>
<text x="84" y="382" font-family="system-ui,sans-serif" font-size="10">v2</text>
<rect x="112" y="372" width="10" height="10" fill="#4c72b0"/>
<text x="126" y="382" font-family="system-ui,sans-serif" font-size="10">v3</text>
</svg>