<svg xmlns="http://www.w3.org/2000/svg" width="720" height="400" viewBox="0 0 720 400">
<rect width="100%" height="100%" fill="#fafafa"/>
<text x="360.0" y="28" text-anchor="middle" font-family="system-ui,sans-serif" font-size="14" font-weight="600">Directed citation roles (nanoscale-core graph)</text>
<text x="25" y="195.0" transform="rotate(-90 25,195.0)" text-anchor="middle" font-family="system-ui,sans-serif" font-size="11">graph-matched works</text>
<line x1="70" y1="340" x2="700" y2="340" stroke="#333"/>
<line x1="70" y1="50" x2="70" y2="340" stroke="#333"/>
<text x="175.0" y="358" text-anchor="middle" font-family="system-ui,sans-serif" font-size="11">adjacent</text>
<text x="385.0" y="358" text-anchor="middle" font-family="system-ui,sans-serif" font-size="11">core</text>
<text x="595.0" y="358" text-anchor="middle" font-family="system-ui,sans-serif" font-size="11">bridge</text>
<rect x="106.8" y="330.7" width="136.5" height="9.3" fill="#4c72b0"/>
<rect x="106.8" y="201.8" width="136.5" height="128.9" fill="#55a868"/>
<rect x="106.8" y="188.4" width="136.5" height="13.4" fill="#8172b3"/>
<rect x="106.8" y="114.6" width="136.5" height="73.8" fill="#ccb974"/>
<rect x="106.8" y="99.7" width="136.5" height="14.9" fill="#c44e52"/>
<rect x="316.8" y="339.3" width="136.5" height="0.7" fill="#4c72b0"/>
<rect x="316.8" y="262.5" width="136.5" height="76.7" fill="#55a868"/>
<rect x="316.8" y="229.4" width="136.5" height="33.2" fill="#8172b3"/>
<rect x="316.8" y="125.8" width="136.5" height="103.6" fill="#ccb974"/>
<rect x="316.8" y="87.8" width="136.5" height="38.0" fill="#c44e52"/>
<rect x="526.8" y="340.0" width="136.5" height="0.0" fill="#4c72b0"/>
<rect x="526.8" y="334.4" width="136.5" height="5.6" fill="#55a868"/>
<rect x="526.8" y="333.7" width="136.5" height="0.7" fill="#8172b3"/>
<rect x="526.8" y="327.7" width="136.5" height="6.0" fill="#ccb974"/>
<rect x="526.8" y="324.7" width="136.5" height="3.0" fill="#c44e52"/>
<rect x="70" y="372" width="10" height="10" fill="#4c72b0"/>
<text x="84" y="382" font-family="system-ui,sans-serif" font-size="10">hub</text>
<rect x="118" y="372" width="10" height="10" fill="#55a868"/>
<text x="132" y="382" font-family="system-ui,sans-serif" font-size="10">broker</text>
<rect x="184" y="372" width="10" height="10" fill="#8172b3"/>
<text x="198" y="382" font-family="system-ui,sans-serif" font-size="10">only_in</text>
<rect x="256" y="372" width="10" height="10" fill="#ccb974"/>
<text x="270" y="382" font-family="system-ui,sans-serif" font-size="10">only_out</text>
<rect x="334" y="372" width="10" height="10" fill="#c44e52"/>
<text x="348" y="382" font-family="system-ui,sans-serif" font-size="10">isolate</text>
</svg>