<svg xmlns="http://www.w3.org/2000/svg" width="720" height="400" viewBox="0 0 720 400">
<rect width="100%" height="100%" fill="#fafafa"/>
<text x="360.0" y="28" text-anchor="middle" font-family="system-ui,sans-serif" font-size="14" font-weight="600">Author trim: sole middle credit vs consortium</text>
<text x="25" y="195.0" transform="rotate(-90 25,195.0)" text-anchor="middle" font-family="system-ui,sans-serif" font-size="11">persons / mentions</text>
<line x1="70" y1="340" x2="700" y2="340" stroke="#333"/>
<line x1="70" y1="50" x2="70" y2="340" stroke="#333"/>
<text x="148.75" y="358" text-anchor="middle" font-family="system-ui,sans-serif" font-size="11">excluded single middle</text>
<text x="306.25" y="358" text-anchor="middle" font-family="system-ui,sans-serif" font-size="11">consortium middle kept</text>
<text x="463.75" y="358" text-anchor="middle" font-family="system-ui,sans-serif" font-size="11">consortium middle trimmed</text>
<text x="621.25" y="358" text-anchor="middle" font-family="system-ui,sans-serif" font-size="11">graph nodes</text>
<rect x="97.6" y="87.8" width="23.0" height="252.2" fill="#c44e52"/>
<rect x="255.1" y="340.0" width="23.0" height="0.0" fill="#c44e52"/>
<rect x="412.6" y="340.0" width="23.0" height="0.0" fill="#c44e52"/>
<rect x="570.1" y="340.0" width="23.0" height="0.0" fill="#c44e52"/>
<rect x="123.2" y="340.0" width="23.0" height="0.0" fill="#55a868"/>
<rect x="280.7" y="137.0" width="23.0" height="203.0" fill="#55a868"/>
<rect x="438.2" y="340.0" width="23.0" height="0.0" fill="#55a868"/>
<rect x="595.7" y="340.0" width="23.0" height="0.0" fill="#55a868"/>
<rect x="148.8" y="340.0" width="23.0" height="0.0" fill="#e8956a"/>
<rect x="306.2" y="340.0" width="23.0" height="0.0" fill="#e8956a"/>
<rect x="463.8" y="277.9" width="23.0" height="62.1" fill="#e8956a"/>
<rect x="621.2" y="340.0" width="23.0" height="0.0" fill="#e8956a"/>
<rect x="174.3" y="340.0" width="23.0" height="0.0" fill="#4c72b0"/>
<rect x="331.8" y="340.0" width="23.0" height="0.0" fill="#4c72b0"/>
<rect x="489.3" y="340.0" width="23.0" height="0.0" fill="#4c72b0"/>
<rect x="646.8" y="96.1" width="23.0" height="243.9" fill="#4c72b0"/>
<rect x="70" y="372" width="10" height="10" fill="#c44e52"/>
<text x="84" y="382" font-family="system-ui,sans-serif" font-size="10">0</text>
<rect x="106" y="372" width="10" height="10" fill="#55a868"/>
<text x="120" y="382" font-family="system-ui,sans-serif" font-size="10">1</text>
<rect x="142" y="372" width="10" height="10" fill="#e8956a"/>
<text x="156" y="382" font-family="system-ui,sans-serif" font-size="10">2</text>
<rect x="178" y="372" width="10" height="10" fill="#4c72b0"/>
<text x="192" y="382" font-family="system-ui,sans-serif" font-size="10">3</text>
</svg>