<svg xmlns="http://www.w3.org/2000/svg" width="780" height="420">
<rect width="100%" height="100%" fill="#fafafa"/>
<text x="390.0" y="28" text-anchor="middle" font-family="system-ui,sans-serif" font-size="14" font-weight="600">integrated: top coauthor communities</text>
<text x="390.0" y="408" text-anchor="middle" font-family="system-ui,sans-serif" font-size="11">works</text>
<text x="152" y="74.0" text-anchor="end" font-family="system-ui,sans-serif" font-size="9">J. Lichtman</text>
<rect x="160.0" y="60.0" width="341.2" height="20.0" fill="#4c72b0"/>
<rect x="501.2" y="60.0" width="189.8" height="20.0" fill="#8da0cb"/>
<rect x="691.0" y="60.0" width="14.4" height="20.0" fill="#ccb974"/>
<text x="152" y="114.0" text-anchor="end" font-family="system-ui,sans-serif" font-size="9">Albert Cardona</text>
<rect x="160.0" y="100.0" width="168.2" height="20.0" fill="#4c72b0"/>
<rect x="328.2" y="100.0" width="96.1" height="20.0" fill="#8da0cb"/>
<rect x="424.3" y="100.0" width="4.8" height="20.0" fill="#ccb974"/>
<text x="152" y="154.0" text-anchor="end" font-family="system-ui,sans-serif" font-size="9">G. Jefferis</text>
<rect x="160.0" y="140.0" width="194.6" height="20.0" fill="#4c72b0"/>
<rect x="354.6" y="140.0" width="60.1" height="20.0" fill="#8da0cb"/>
<rect x="414.7" y="140.0" width="9.6" height="20.0" fill="#ccb974"/>
<text x="152" y="194.0" text-anchor="end" font-family="system-ui,sans-serif" font-size="9">Oliver Hobert</text>
<rect x="160.0" y="180.0" width="81.7" height="20.0" fill="#4c72b0"/>
<rect x="241.7" y="180.0" width="93.7" height="20.0" fill="#8da0cb"/>
<rect x="335.4" y="180.0" width="0.0" height="20.0" fill="#ccb974"/>
<text x="152" y="234.0" text-anchor="end" font-family="system-ui,sans-serif" font-size="9">H. Sebastian Seung</text>
<rect x="160.0" y="220.0" width="122.5" height="20.0" fill="#4c72b0"/>
<rect x="282.5" y="220.0" width="24.0" height="20.0" fill="#8da0cb"/>
<rect x="306.6" y="220.0" width="2.4" height="20.0" fill="#ccb974"/>
<text x="152" y="274.0" text-anchor="end" font-family="system-ui,sans-serif" font-size="9">M. Helmstaedter</text>
<rect x="160.0" y="260.0" width="55.3" height="20.0" fill="#4c72b0"/>
<rect x="215.3" y="260.0" width="55.3" height="20.0" fill="#8da0cb"/>
<rect x="270.5" y="260.0" width="0.0" height="20.0" fill="#ccb974"/>
<text x="152" y="314.0" text-anchor="end" font-family="system-ui,sans-serif" font-size="9">James R. Anderson</text>
<rect x="160.0" y="300.0" width="57.7" height="20.0" fill="#4c72b0"/>
<rect x="217.7" y="300.0" width="24.0" height="20.0" fill="#8da0cb"/>
<rect x="241.7" y="300.0" width="2.4" height="20.0" fill="#ccb974"/>
<text x="152" y="354.0" text-anchor="end" font-family="system-ui,sans-serif" font-size="9">Brock Andrew Wester</text>
<rect x="160.0" y="340.0" width="36.0" height="20.0" fill="#4c72b0"/>
<rect x="196.0" y="340.0" width="7.2" height="20.0" fill="#8da0cb"/>
<rect x="203.3" y="340.0" width="14.4" height="20.0" fill="#ccb974"/>
<rect x="160" y="388" width="10" height="10" fill="#4c72b0"/>
<text x="174" y="397" font-size="10" font-family="system-ui,sans-serif">core</text>
<rect x="220" y="388" width="10" height="10" fill="#8da0cb"/>
<text x="234" y="397" font-size="10" font-family="system-ui,sans-serif">adjacent</text>
<rect x="280" y="388" width="10" height="10" fill="#ccb974"/>
<text x="294" y="397" font-size="10" font-family="system-ui,sans-serif">bridge</text>
</svg>