<svg xmlns="http://www.w3.org/2000/svg" width="780" height="420">
<rect width="100%" height="100%" fill="#fafafa"/>
<text x="390.0" y="28" text-anchor="middle" font-family="system-ui,sans-serif" font-size="14" font-weight="600">integrated_plus_rescue: top coauthor communities</text>
<text x="390.0" y="408" text-anchor="middle" font-family="system-ui,sans-serif" font-size="11">works</text>
<text x="152" y="74.0" text-anchor="end" font-family="system-ui,sans-serif" font-size="9">Oliver Hobert</text>
<rect x="160.0" y="60.0" width="260.1" height="20.0" fill="#4c72b0"/>
<rect x="420.1" y="60.0" width="262.9" height="20.0" fill="#8da0cb"/>
<rect x="683.1" y="60.0" width="22.4" height="20.0" fill="#ccb974"/>
<text x="152" y="114.0" text-anchor="end" font-family="system-ui,sans-serif" font-size="9">J. Lichtman</text>
<rect x="160.0" y="100.0" width="321.7" height="20.0" fill="#4c72b0"/>
<rect x="481.7" y="100.0" width="97.9" height="20.0" fill="#8da0cb"/>
<rect x="579.6" y="100.0" width="28.0" height="20.0" fill="#ccb974"/>
<text x="152" y="154.0" text-anchor="end" font-family="system-ui,sans-serif" font-size="9">Albert Cardona</text>
<rect x="160.0" y="140.0" width="223.8" height="20.0" fill="#4c72b0"/>
<rect x="383.8" y="140.0" width="95.1" height="20.0" fill="#8da0cb"/>
<rect x="478.9" y="140.0" width="28.0" height="20.0" fill="#ccb974"/>
<text x="152" y="194.0" text-anchor="end" font-family="system-ui,sans-serif" font-size="9">M. Helmstaedter</text>
<rect x="160.0" y="180.0" width="128.7" height="20.0" fill="#4c72b0"/>
<rect x="288.7" y="180.0" width="148.3" height="20.0" fill="#8da0cb"/>
<rect x="436.9" y="180.0" width="16.8" height="20.0" fill="#ccb974"/>
<text x="152" y="234.0" text-anchor="end" font-family="system-ui,sans-serif" font-size="9">G. Jefferis</text>
<rect x="160.0" y="220.0" width="181.8" height="20.0" fill="#4c72b0"/>
<rect x="341.8" y="220.0" width="81.1" height="20.0" fill="#8da0cb"/>
<rect x="422.9" y="220.0" width="8.4" height="20.0" fill="#ccb974"/>
<text x="152" y="274.0" text-anchor="end" font-family="system-ui,sans-serif" font-size="9">H. Sebastian Seung</text>
<rect x="160.0" y="260.0" width="151.0" height="20.0" fill="#4c72b0"/>
<rect x="311.0" y="260.0" width="28.0" height="20.0" fill="#8da0cb"/>
<rect x="339.0" y="260.0" width="0.0" height="20.0" fill="#ccb974"/>
<text x="152" y="314.0" text-anchor="end" font-family="system-ui,sans-serif" font-size="9">James R. Anderson</text>
<rect x="160.0" y="300.0" width="86.7" height="20.0" fill="#4c72b0"/>
<rect x="246.7" y="300.0" width="28.0" height="20.0" fill="#8da0cb"/>
<rect x="274.7" y="300.0" width="2.8" height="20.0" fill="#ccb974"/>
<text x="152" y="354.0" text-anchor="end" font-family="system-ui,sans-serif" font-size="9">Olaf Sporns</text>
<rect x="160.0" y="340.0" width="16.8" height="20.0" fill="#4c72b0"/>
<rect x="176.8" y="340.0" width="22.4" height="20.0" fill="#8da0cb"/>
<rect x="199.2" y="340.0" width="0.0" height="20.0" fill="#ccb974"/>
<rect x="160" y="388" width="10" height="10" fill="#4c72b0"/>
<text x="174" y="397" font-size="10" font-family="system-ui,sans-serif">core</text>
<rect x="220" y="388" width="10" height="10" fill="#8da0cb"/>
<text x="234" y="397" font-size="10" font-family="system-ui,sans-serif">adjacent</text>
<rect x="280" y="388" width="10" height="10" fill="#ccb974"/>
<text x="294" y="397" font-size="10" font-family="system-ui,sans-serif">bridge</text>
</svg>