<svg xmlns="http://www.w3.org/2000/svg" width="720" height="400" viewBox="0 0 720 400">
<rect width="100%" height="100%" fill="#fafafa"/>
<text x="360.0" y="28" text-anchor="middle" font-family="system-ui,sans-serif" font-size="14" font-weight="600">prime: citation link strength by tier</text>
<text x="25" y="195.0" transform="rotate(-90 25,195.0)" text-anchor="middle" font-family="system-ui,sans-serif" font-size="11">graph-matched works</text>
<line x1="70" y1="340" x2="700" y2="340" stroke="#333"/>
<line x1="70" y1="50" x2="70" y2="340" stroke="#333"/>
<text x="175.0" y="358" text-anchor="middle" font-family="system-ui,sans-serif" font-size="11">core</text>
<text x="385.0" y="358" text-anchor="middle" font-family="system-ui,sans-serif" font-size="11">adjacent</text>
<text x="595.0" y="358" text-anchor="middle" font-family="system-ui,sans-serif" font-size="11">bridge</text>
<rect x="106.8" y="326.7" width="136.5" height="13.3" fill="#e8956a"/>
<rect x="106.8" y="221.3" width="136.5" height="105.4" fill="#8da0cb"/>
<rect x="106.8" y="87.8" width="136.5" height="133.5" fill="#4c72b0"/>
<rect x="316.8" y="298.5" width="136.5" height="41.5" fill="#e8956a"/>
<rect x="316.8" y="203.7" width="136.5" height="94.9" fill="#8da0cb"/>
<rect x="316.8" y="161.2" width="136.5" height="42.4" fill="#4c72b0"/>
<rect x="526.8" y="339.0" width="136.5" height="1.0" fill="#e8956a"/>
<rect x="526.8" y="331.4" width="136.5" height="7.6" fill="#8da0cb"/>
<rect x="526.8" y="327.1" width="136.5" height="4.3" fill="#4c72b0"/>
<rect x="70" y="372" width="10" height="10" fill="#e8956a"/>
<text x="84" y="382" font-family="system-ui,sans-serif" font-size="10">weak</text>
<rect x="124" y="372" width="10" height="10" fill="#8da0cb"/>
<text x="138" y="382" font-family="system-ui,sans-serif" font-size="10">moderate</text>
<rect x="202" y="372" width="10" height="10" fill="#4c72b0"/>
<text x="216" y="382" font-family="system-ui,sans-serif" font-size="10">strong</text>
</svg>